<?xml version="1.0" encoding="UTF-8"?>
<svg version="1.1" xmlns="http://www.w3.org/2000/svg" width="500" height="500">
<path d="M0 0 C165 0 330 0 500 0 C500 165 500 330 500 500 C335 500 170 500 0 500 C0 335 0 170 0 0 Z " fill="#FEFEFE" transform="translate(0,0)"/>
<path d="M0 0 C2.5 1.625 2.5 1.625 4 4 C4.61155079 7.59286089 4.31540846 9.39785657 2.625 12.625 C-1.10071873 15.99588837 -5.29140509 17.3915296 -10 19 C-9.67 20.32 -9.34 21.64 -9 23 C-6.69 23.33 -4.38 23.66 -2 24 C-1.38125 23.01 -0.7625 22.02 -0.125 21 C0.57625 20.01 1.2775 19.02 2 18 C2.66 18 3.32 18 4 18 C4.25 20.3125 4.25 20.3125 4 23 C1.56829664 25.93830822 -0.11941628 26.01326848 -3.9375 26.4375 C-7.02759082 26.3109041 -8.09298311 25.94542296 -10.875 24.3125 C-14.84664815 19.99041231 -15.4481517 15.93873244 -15.32421875 10.21875 C-14.81797212 6.75431525 -13.23761884 4.62121065 -11 2 C-7.31494085 -0.4567061 -4.27963474 -0.68887481 0 0 Z " fill="#755332" transform="translate(227,218)"/>
<path d="M0 0 C1.70043945 1.18676758 1.70043945 1.18676758 3 3 C3.34057617 5.4519043 3.34057617 5.4519043 3.29296875 8.32421875 C3.28330078 9.35224609 3.27363281 10.38027344 3.26367188 11.43945312 C3.23853516 12.51130859 3.21339844 13.58316406 3.1875 14.6875 C3.16719727 16.31268555 3.16719727 16.31268555 3.14648438 17.97070312 C3.11110643 20.64763405 3.06174189 23.32356838 3 26 C1.68 26 0.36 26 -1 26 C-1.33 25.34 -1.66 24.68 -2 24 C-2.66 24.66 -3.32 25.32 -4 26 C-7.4375 26.375 -7.4375 26.375 -11 26 C-13.81883236 23.7267481 -13.97853245 22.1475894 -14.5 18.5625 C-14 15 -14 15 -12.0625 12.25 C-8.25387236 9.45182459 -4.5281052 8.21341381 0 7 C-0.33 5.35 -0.66 3.7 -1 2 C-6.71863052 3.28139327 -6.71863052 3.28139327 -11 7 C-10.6875 4.625 -10.6875 4.625 -10 2 C-6.30513897 -0.46324069 -4.36706908 -0.38991688 0 0 Z " fill="#7F5F41" transform="translate(261,178)"/>
<path d="M0 0 C0.99 0.66 1.98 1.32 3 2 C3.34057617 4.43017578 3.34057617 4.43017578 3.29296875 7.4453125 C3.28330078 8.52167969 3.27363281 9.59804687 3.26367188 10.70703125 C3.23853516 11.83496094 3.21339844 12.96289062 3.1875 14.125 C3.16719727 15.82849609 3.16719727 15.82849609 3.14648438 17.56640625 C3.11104319 20.37807387 3.06163517 23.18880417 3 26 C2.01 26 1.02 26 0 26 C-0.33 25.01 -0.66 24.02 -1 23 C-1.37125 23.495 -1.7425 23.99 -2.125 24.5 C-4 26 -4 26 -7 26.375 C-10 26 -10 26 -11.65234375 24.75 C-13.78047232 21.9865171 -13.59620257 19.61200392 -13.48046875 16.22265625 C-13 14 -13 14 -10.375 11.0625 C-7.24812364 9.15163111 -4.53270329 7.92523181 -1 7 C-1 5.68 -1 4.36 -1 3 C-3.37374861 2.66574265 -3.37374861 2.66574265 -6 3 C-7.70532323 4.94009522 -7.70532323 4.94009522 -9 7 C-9.66 7 -10.32 7 -11 7 C-10.75 4.625 -10.75 4.625 -10 2 C-6.89865622 -0.41215627 -3.81505974 -0.32468594 0 0 Z " fill="#6A4622" transform="translate(246,218)"/>
<path d="M0 0 C0.99 0.66 1.98 1.32 3 2 C3.34057617 4.43017578 3.34057617 4.43017578 3.29296875 7.4453125 C3.28330078 8.52167969 3.27363281 9.59804687 3.26367188 10.70703125 C3.23853516 11.83496094 3.21339844 12.96289062 3.1875 14.125 C3.16719727 15.82849609 3.16719727 15.82849609 3.14648438 17.56640625 C3.11104319 20.37807387 3.06163517 23.18880417 3 26 C2.01 26 1.02 26 0 26 C-0.33 25.01 -0.66 24.02 -1 23 C-1.37125 23.495 -1.7425 23.99 -2.125 24.5 C-4 26 -4 26 -7 26.375 C-10 26 -10 26 -11.65234375 24.75 C-13.78047232 21.9865171 -13.59620257 19.61200392 -13.48046875 16.22265625 C-13 14 -13 14 -10.375 11.0625 C-7.24812364 9.15163111 -4.53270329 7.92523181 -1 7 C-1 5.68 -1 4.36 -1 3 C-3.37374861 2.66574265 -3.37374861 2.66574265 -6 3 C-7.70532323 4.94009522 -7.70532323 4.94009522 -9 7 C-9.66 7 -10.32 7 -11 7 C-10.75 4.625 -10.75 4.625 -10 2 C-6.89865622 -0.41215627 -3.81505974 -0.32468594 0 0 Z " fill="#6A4622" transform="translate(221,178)"/>
<path d="M0 0 C1.32 0 2.64 0 4 0 C4.33 1.65 4.66 3.3 5 5 C5.53625 4.360625 6.0725 3.72125 6.625 3.0625 C9.49745405 0.56800043 11.21964825 0.08043302 15 0 C16.6652832 1.16333008 16.6652832 1.16333008 18 3 C18.34057617 5.4519043 18.34057617 5.4519043 18.29296875 8.32421875 C18.28330078 9.35224609 18.27363281 10.38027344 18.26367188 11.43945312 C18.23853516 12.51130859 18.21339844 13.58316406 18.1875 14.6875 C18.16719727 16.31268555 18.16719727 16.31268555 18.14648438 17.97070312 C18.11110643 20.64763405 18.06174189 23.32356838 18 26 C16.68 26 15.36 26 14 26 C14 18.08 14 10.16 14 2 C8.98982138 4.00407145 7.6390957 4.54801198 5 9 C4.40573594 11.93758794 4.30515759 14.8214541 4.25 17.8125 C4.22035156 18.60076172 4.19070312 19.38902344 4.16015625 20.20117188 C4.08988707 22.13357446 4.04262866 24.06679015 4 26 C2.68 26 1.36 26 0 26 C0 17.42 0 8.84 0 0 Z " fill="#795939" transform="translate(227,178)"/>
<path d="M0 0 C3 1.25 3 1.25 5 3 C5 4.32 5 5.64 5 7 C4.34 7 3.68 7 3 7 C2.236875 6.175 1.47375 5.35 0.6875 4.5 C-1.73731432 1.74632449 -1.73731432 1.74632449 -4.8125 1.6875 C-5.534375 1.790625 -6.25625 1.89375 -7 2 C-8.07041011 4.18799692 -8.07041011 4.18799692 -8 7 C-5.40024464 9.74959717 -2.7063581 12.01308068 0.2421875 14.36328125 C3.52019509 17.13089731 4.84407778 18.42094768 5.99609375 22.69921875 C6 26 6 26 4.6875 28.9375 C1.17265793 31.63493694 -1.23779701 31.52149028 -5.5625 31.46875 C-8.44550057 30.91432681 -9.89232771 30.02549241 -12 28 C-12.25 25.3125 -12.25 25.3125 -12 23 C-11.57589844 23.44472656 -11.15179688 23.88945312 -10.71484375 24.34765625 C-8.87717983 26.12069902 -7.1657593 27.64117418 -5 29 C-1.16324392 29.03853294 -1.16324392 29.03853294 2 28 C2.41890218 25.21061788 2.41890218 25.21061788 2 22 C-0.12136173 19.41459039 -2.44711862 17.43128904 -5.078125 15.37890625 C-11.424181 10.25412362 -11.424181 10.25412362 -12 6.0625 C-12 5.051875 -12 4.04125 -12 3 C-8.46761009 -0.53238991 -4.7434141 -0.69507454 0 0 Z " fill="#714F2D" transform="translate(200,173)"/>
<path d="M0 0 C7.59 0 15.18 0 23 0 C23.33 1.65 23.66 3.3 24 5 C23.484375 4.690625 22.96875 4.38125 22.4375 4.0625 C19.35837704 2.59175744 19.35837704 2.59175744 13 2 C13 11.57 13 21.14 13 31 C12.01 31 11.02 31 10 31 C10 21.43 10 11.86 10 2 C6.7 2.66 3.4 3.32 0 4 C0 2.68 0 1.36 0 0 Z " fill="#603913" transform="translate(187,213)"/>
<path d="M0 0 C2.875 0.4375 2.875 0.4375 4.875 2.4375 C5.3125 5.25 5.3125 5.25 4.875 8.4375 C2.14832387 12.15569473 0.60232031 13.28249731 -3.9375 14.25 C-5.5153125 14.3428125 -5.5153125 14.3428125 -7.125 14.4375 C-7.48266296 9.87729722 -7.68252445 6.48821916 -5.5 2.375 C-3.125 0.4375 -3.125 0.4375 0 0 Z " fill="#FAF9F8" transform="translate(223.125,219.5625)"/>
<path d="M0 0 C0.51211281 6.40141012 0.11888494 9.98010898 -4 15 C-8.875 14.125 -8.875 14.125 -10 13 C-10.58717795 6.77591372 -10.58717795 6.77591372 -8.25 3.6875 C-3.33333333 0 -3.33333333 0 0 0 Z " fill="#FAF8F7" transform="translate(246,227)"/>
<path d="M0 0 C0.51211281 6.40141012 0.11888494 9.98010898 -4 15 C-8.875 14.125 -8.875 14.125 -10 13 C-10.58717795 6.77591372 -10.58717795 6.77591372 -8.25 3.6875 C-3.33333333 0 -3.33333333 0 0 0 Z " fill="#FAF8F7" transform="translate(221,187)"/>
<path d="M0 0 C1.70043945 1.18676758 1.70043945 1.18676758 3 3 C3.34057617 5.4519043 3.34057617 5.4519043 3.29296875 8.32421875 C3.28330078 9.35224609 3.27363281 10.38027344 3.26367188 11.43945312 C3.23853516 12.51130859 3.21339844 13.58316406 3.1875 14.6875 C3.17396484 15.77095703 3.16042969 16.85441406 3.14648438 17.97070312 C3.11110643 20.64763405 3.06174189 23.32356838 3 26 C2.01 26 1.02 26 0 26 C-1.32915021 18.02509872 -1.08801359 10.05813281 -1 2 C-6.70734964 3.31677354 -6.70734964 3.31677354 -11 7 C-10.6875 4.625 -10.6875 4.625 -10 2 C-6.30513897 -0.46324069 -4.36706908 -0.38991688 0 0 Z " fill="#623B16" transform="translate(261,178)"/>
<path d="M0 0 C0.62004175 9.98956159 0.62004175 9.98956159 -1.6875 13.75 C-4 15 -4 15 -6.75 14.75 C-7.4925 14.5025 -8.235 14.255 -9 14 C-9.49058349 10.87253023 -9.70077352 8.10416714 -9 5 C-6.77242346 2.81727399 -3.29387714 0 0 0 Z " fill="#FCFBFB" transform="translate(260,187)"/>
<path d="M0 0 C3.875 1.875 3.875 1.875 5 3 C5.44009364 6.87282401 5.28338319 8.56547911 3.125 11.875 C2.42375 12.57625 1.7225 13.2775 1 14 C0.34 14 -0.32 14 -1 14 C-0.67 13.29875 -0.34 12.5975 0 11.875 C1.48414354 7.60808731 1.42275398 4.26826195 0 0 Z " fill="#694521" transform="translate(226,219)"/>
<path d="M0 0 C7.59 0 15.18 0 23 0 C23.33 1.65 23.66 3.3 24 5 C23.01 4.34 22.02 3.68 21 3 C21 2.34 21 1.68 21 1 C14.07 1 7.14 1 0 1 C0 0.67 0 0.34 0 0 Z " fill="#836447" transform="translate(187,213)"/>
<path d="M0 0 C0.67095703 0.63228516 0.67095703 0.63228516 1.35546875 1.27734375 C5.98399766 5.5377979 5.98399766 5.5377979 12 7 C12 7.33 12 7.66 12 8 C4.76190476 8.36190476 4.76190476 8.36190476 1.5 6.8125 C0 5 0 5 -0.25 2.3125 C-0.1675 1.549375 -0.085 0.78625 0 0 Z " fill="#6A4521" transform="translate(188,196)"/>
<path d="M0 0 C-2 2 -2 2 -4.9375 2.9375 C-7.85839516 3.95087179 -9.08604685 4.66072393 -11 7 C-10.6875 4.625 -10.6875 4.625 -10 2 C-6.3558226 -0.4294516 -4.28758728 -0.16179575 0 0 Z " fill="#7D5D3E" transform="translate(261,178)"/>
<path d="M0 0 C0.66 0 1.32 0 2 0 C2.3125 2.3125 2.3125 2.3125 2 5 C-0.5 6.8125 -0.5 6.8125 -3 8 C-3 4.40142046 -2.04169485 2.90548882 0 0 Z " fill="#7C5C3D" transform="translate(229,236)"/>
<path d="M0 0 C0.86625 0.556875 0.86625 0.556875 1.75 1.125 C0.96625 1.393125 0.1825 1.66125 -0.625 1.9375 C-3.53114923 2.97314432 -3.53114923 2.97314432 -5.25 6.125 C-5.91 6.125 -6.57 6.125 -7.25 6.125 C-7 3.75 -7 3.75 -6.25 1.125 C-3.80299775 -0.81572592 -2.94395499 -1.14487138 0 0 Z " fill="#856749" transform="translate(242.25,218.875)"/>
<path d="M0 0 C0.86625 0.556875 0.86625 0.556875 1.75 1.125 C0.96625 1.393125 0.1825 1.66125 -0.625 1.9375 C-3.53114923 2.97314432 -3.53114923 2.97314432 -5.25 6.125 C-5.91 6.125 -6.57 6.125 -7.25 6.125 C-7 3.75 -7 3.75 -6.25 1.125 C-3.80299775 -0.81572592 -2.94395499 -1.14487138 0 0 Z " fill="#856749" transform="translate(217.25,178.875)"/>
</svg>
